# xmcd
#
# Track frame offsets: 
#        150
#        19110
#        33735
#        57520
#        71072
#        86590
#        110465
#        139722
#        158577
#        173425
#        198102
#        230235
#
# Disc length: 3369 seconds
#
# Revision: 2
# Processed by: cddbd v1.4PL0 Copyright (c) Steve Scherf et al.
# Submitted via: ExactAudioCopy v0.90b3
#
DISCID=9e0d270c
DTITLE=Melvin Taylor - Plays the blues for you
DYEAR=1900
DGENRE=
TTITLE0=Talking To Anna-Mae (Part 1)
TTITLE1=TV Mama
TTITLE2=I'll Play The Blues For You
TTITLE3=Born To Loose
TTITLE4=Tribute To The Wess
TTITLE5=Cadillac Assembly Line
TTITLE6=Voodoo Daddy
TTITLE7=Talking To Anna-Mae (Part 2)
TTITLE8=Groovin' In Paris
TTITLE9=Kinda Easy Like
TTITLE10=Don't Answer The Door
TTITLE11=Ridin'
EXTD=
EXTT0=
EXTT1=
EXTT2=
EXTT3=
EXTT4=
EXTT5=
EXTT6=
EXTT7=
EXTT8=
EXTT9=
EXTT10=
EXTT11=
PLAYORDER=
